<svg xmlns="http://www.w3.org/2000/svg" version="1.1" xmlns:xlink="http://www.w3.org/1999/xlink" xmlns:svgjs="http://svgjs.dev/svgjs" width="1000" height="547" viewBox="0 0 1000 547"><g transform="matrix(1,0,0,1,-0.6060606060606233,-0.5308713262719493)"><svg viewBox="0 0 396 217" data-background-color="#d498ca" preserveAspectRatio="xMidYMid meet" height="547" width="1000" xmlns="http://www.w3.org/2000/svg" xmlns:xlink="http://www.w3.org/1999/xlink"><g id="tight-bounds" transform="matrix(1,0,0,1,0.2400000000000091,0.2106016047550412)"><svg viewBox="0 0 395.52 216.57879679048992" height="216.57879679048992" width="395.52"><g><svg viewBox="0 0 395.52 216.57879679048992" height="216.57879679048992" width="395.52"><g transform="matrix(1,0,0,1,0,161.1453031843518)"><svg viewBox="0 0 395.52 55.43349360613811" height="55.43349360613811" width="395.52"><g id="textblocktransform"><svg viewBox="0 0 395.52 55.43349360613811" height="55.43349360613811" width="395.52" id="textblock"><g><svg viewBox="0 0 395.52 55.43349360613811" height="55.43349360613811" width="395.52"><g transform="matrix(1,0,0,1,0,0)"><svg width="395.52" viewBox="-0.10000000149011612 -33.45000076293945 238.73001098632812 33.45000076293945" height="55.43349360613811" data-palette-color="#ffffff"><g class="wordmark-text-0" data-fill-palette-color="primary" id="text-0"><path d="M20.46-20.29L20.46-22.85 12.3-22.85 12.3-28.66 21.85-28.66 21.85-31.25 9.69-31.25 9.69-11.06 12.3-11.06 12.3-20.29 20.46-20.29ZM10.69-33.45L18.21-33.45Q20.68-33.45 22.68-32.71 24.68-31.98 26.09-30.71 27.49-29.44 28.25-27.75 29-26.05 29-24.15L29-24.15 29-9.3Q29-7.4 28.25-5.7 27.49-4 26.09-2.73 24.68-1.46 22.68-0.73 20.68 0 18.21 0L18.21 0 10.69 0Q8.23 0 6.23-0.73 4.22-1.46 2.82-2.73 1.42-4 0.66-5.7-0.1-7.4-0.1-9.3L-0.1-9.3-0.1-24.15Q-0.1-26.05 0.66-27.75 1.42-29.44 2.82-30.71 4.22-31.98 6.23-32.71 8.23-33.45 10.69-33.45L10.69-33.45ZM39.6-33.45L47.12-33.45Q49.58-33.45 51.58-32.71 53.59-31.98 54.99-30.71 56.39-29.44 57.15-27.75 57.91-26.05 57.91-24.15L57.91-24.15 57.91-9.3Q57.91-7.4 57.15-5.7 56.39-4 54.99-2.73 53.59-1.46 51.58-0.73 49.58 0 47.12 0L47.12 0 39.6 0Q37.13 0 35.13-0.73 33.13-1.46 31.72-2.73 30.32-4 29.56-5.7 28.81-7.4 28.81-9.3L28.81-9.3 28.81-24.15Q28.81-26.05 29.56-27.75 30.32-29.44 31.72-30.71 33.13-31.98 35.13-32.71 37.13-33.45 39.6-33.45L39.6-33.45ZM52-14.99L52-31.25 49.41-31.25 49.41-15.26Q49.36-14.94 49.25-14.58 49.14-14.21 49.05-13.89L49.05-13.89 47.46-13.65 41.21-13.65 39.6-13.89 39.26-15.36 39.26-31.25 36.72-31.25 36.72-14.99 37.01-12.89 38.6-11.35 41.06-11.06 47.6-11.06 50.1-11.35 51.66-12.89 52-14.99ZM80.56-11.06L80.56-27.34 80.22-29.39 78.66-30.96 76.17-31.25 70.06-31.25 65.67-30.64 65.67-11.06 68.26-11.06 68.26-28.39 70.16-28.71 76.02-28.71 77.7-28.44 77.95-27 77.95-11.06 80.56-11.06ZM68.5-33.45L76.02-33.45Q78.49-33.45 80.49-32.71 82.49-31.98 83.89-30.71 85.3-29.44 86.05-27.75 86.81-26.05 86.81-24.15L86.81-24.15 86.81-9.3Q86.81-7.4 86.05-5.7 85.3-4 83.89-2.73 82.49-1.46 80.49-0.73 78.49 0 76.02 0L76.02 0 68.5 0Q66.04 0 64.03-0.73 62.03-1.46 60.63-2.73 59.22-4 58.47-5.7 57.71-7.4 57.71-9.3L57.71-9.3 57.71-24.15Q57.71-26.05 58.47-27.75 59.22-29.44 60.63-30.71 62.03-31.98 64.03-32.71 66.04-33.45 68.5-33.45L68.5-33.45Z" fill="#ffffff" data-fill-palette-color="primary"></path><path d="M114.47-20.29L114.47-22.85 106.31-22.85 106.31-28.66 115.86-28.66 115.86-31.25 103.7-31.25 103.7-11.06 106.31-11.06 106.31-20.29 114.47-20.29ZM104.7-33.45L112.22-33.45Q114.69-33.45 116.69-32.71 118.69-31.98 120.1-30.71 121.5-29.44 122.26-27.75 123.01-26.05 123.01-24.15L123.01-24.15 123.01-9.3Q123.01-7.4 122.26-5.7 121.5-4 120.1-2.73 118.69-1.46 116.69-0.73 114.69 0 112.22 0L112.22 0 104.7 0Q102.24 0 100.24-0.73 98.23-1.46 96.83-2.73 95.43-4 94.67-5.7 93.91-7.4 93.91-9.3L93.91-9.3 93.91-24.15Q93.91-26.05 94.67-27.75 95.43-29.44 96.83-30.71 98.23-31.98 100.24-32.71 102.24-33.45 104.7-33.45L104.7-33.45ZM133.61-33.45L141.13-33.45Q143.59-33.45 145.59-32.71 147.6-31.98 149-30.71 150.4-29.44 151.16-27.75 151.92-26.05 151.92-24.15L151.92-24.15 151.92-9.3Q151.92-7.4 151.16-5.7 150.4-4 149-2.73 147.6-1.46 145.59-0.73 143.59 0 141.13 0L141.13 0 133.61 0Q131.14 0 129.14-0.73 127.14-1.46 125.73-2.73 124.33-4 123.57-5.7 122.82-7.4 122.82-9.3L122.82-9.3 122.82-24.15Q122.82-26.05 123.57-27.75 124.33-29.44 125.73-30.71 127.14-31.98 129.14-32.71 131.14-33.45 133.61-33.45L133.61-33.45ZM142.91-16.26L143.37-11.06 146.16-11.06 144.23-29.25 142.71-30.76 139.47-31.25 136.85-31.25 133.61-30.76 132.12-29.25 130.12-11.06 133.02-11.06 133.41-16.26 133.66-18.51 142.66-18.51 142.91-16.26ZM139.37-28.66L141.66-28.3Q141.83-26.32 142.05-24.56 142.27-22.8 142.47-20.85L142.47-20.85 133.88-20.85 134.61-28.3Q135.29-28.37 135.79-28.47 136.29-28.56 136.98-28.66L136.98-28.66 139.37-28.66ZM172.57-30.91L169.71-31.25 163.83-31.25 161.31-30.96 159.78-29.39 159.41-27.34 159.41-14.94 159.78-12.89 161.36-11.35 163.83-11.06 169.71-11.06 172.57-11.4 171.96-14.04 169.66-13.65 163.98-13.65 162.36-13.89 162.02-15.36 162.02-27.1 162.27-28.44 163.98-28.71 169.57-28.71 172.08-28.3 172.57-30.91ZM162.51-33.45L170.03-33.45Q172.5-33.45 174.5-32.71 176.5-31.98 177.9-30.71 179.31-29.44 180.06-27.75 180.82-26.05 180.82-24.15L180.82-24.15 180.82-9.3Q180.82-7.4 180.06-5.7 179.31-4 177.9-2.73 176.5-1.46 174.5-0.73 172.5 0 170.03 0L170.03 0 162.51 0Q160.04 0 158.04-0.73 156.04-1.46 154.64-2.73 153.23-4 152.48-5.7 151.72-7.4 151.72-9.3L151.72-9.3 151.72-24.15Q151.72-26.05 152.48-27.75 153.23-29.44 154.64-30.71 156.04-31.98 158.04-32.71 160.04-33.45 162.51-33.45L162.51-33.45ZM203.57-28.66L203.57-31.25 189.46-31.25 189.46-28.66 195.22-28.66 195.22-11.06 197.84-11.06 197.84-28.66 203.57-28.66ZM191.41-33.45L198.93-33.45Q201.4-33.45 203.4-32.71 205.4-31.98 206.81-30.71 208.21-29.44 208.97-27.75 209.72-26.05 209.72-24.15L209.72-24.15 209.72-9.3Q209.72-7.4 208.97-5.7 208.21-4 206.81-2.73 205.4-1.46 203.4-0.73 201.4 0 198.93 0L198.93 0 191.41 0Q188.95 0 186.95-0.73 184.94-1.46 183.54-2.73 182.14-4 181.38-5.7 180.62-7.4 180.62-9.3L180.62-9.3 180.62-24.15Q180.62-26.05 181.38-27.75 182.14-29.44 183.54-30.71 184.94-31.98 186.95-32.71 188.95-33.45 191.41-33.45L191.41-33.45ZM220.32-33.45L227.84-33.45Q230.3-33.45 232.31-32.71 234.31-31.98 235.71-30.71 237.11-29.44 237.87-27.75 238.63-26.05 238.63-24.15L238.63-24.15 238.63-9.3Q238.63-7.4 237.87-5.7 237.11-4 235.71-2.73 234.31-1.46 232.31-0.73 230.3 0 227.84 0L227.84 0 220.32 0Q217.85 0 215.85-0.73 213.85-1.46 212.44-2.73 211.04-4 210.28-5.7 209.53-7.4 209.53-9.3L209.53-9.3 209.53-24.15Q209.53-26.05 210.28-27.75 211.04-29.44 212.44-30.71 213.85-31.98 215.85-32.71 217.85-33.45 220.32-33.45L220.32-33.45ZM232.43-14.99L232.43-18.7 232.09-20.8 230.52-22.34 227.98-22.61 222.52-22.61 221.03-22.9Q220.9-23.32 220.86-23.65 220.81-23.97 220.68-24.34L220.68-24.34 220.68-26.9 221.03-28.34 222.64-28.66 228.84-28.66 231.13-28.2 231.72-30.86 228.89-31.25 222.47-31.25 220.03-30.91 218.44-29.35 218.12-27.29 218.12-23.95 218.44-21.9 220.03-20.36 222.47-20.04 227.98-20.04 229.47-19.8Q229.55-19.43 229.64-19.12 229.74-18.8 229.82-18.46L229.82-18.46 229.82-15.26Q229.77-14.94 229.66-14.58 229.55-14.21 229.47-13.89L229.47-13.89 227.89-13.65 221.83-13.65 219.44-14.04 218.83-11.4 221.69-11.06 228.03-11.06 230.52-11.35 232.09-12.89 232.43-14.99Z" fill="#ffffff" data-fill-palette-color="primary"></path></g></svg></g></svg></g></svg></g></svg></g><g transform="matrix(1,0,0,1,130.27386584438676,0)"><svg viewBox="0 0 134.9722683112265 134.9722683112265" height="134.9722683112265" width="134.9722683112265"><g><svg></svg></g><g id="icon-0"><svg viewBox="0 0 134.9722683112265 134.9722683112265" height="134.9722683112265" width="134.9722683112265"><g><path d="M0 67.486c0-37.272 30.215-67.486 67.486-67.486 37.272 0 67.486 30.215 67.486 67.486 0 37.272-30.215 67.486-67.486 67.486-37.272 0-67.486-30.215-67.486-67.486zM67.486 129.973c34.511 0 62.487-27.976 62.487-62.487 0-34.511-27.976-62.487-62.487-62.487-34.511 0-62.487 27.976-62.487 62.487 0 34.511 27.976 62.487 62.487 62.487z" data-fill-palette-color="accent" fill="#ffffff" stroke="transparent"></path></g><g transform="matrix(1,0,0,1,28.432032532430014,38.73762905944946)"><svg viewBox="0 0 78.10820324636646 57.497010192327565" height="57.497010192327565" width="78.10820324636646"><g><svg xmlns="http://www.w3.org/2000/svg" xmlns:xlink="http://www.w3.org/1999/xlink" version="1.1" x="0" y="0" viewBox="2.2060000896453857 14.194000244140625 100 73.61199951171875" enable-background="new 2.206 14.194 100 73.612" xml:space="preserve" width="78.10820324636646" height="57.497010192327565" class="icon-s-0" data-fill-palette-color="accent" id="s-0"><path fill="#ffffff" d="M52.043 63.576l0.007-0.012-5.398-11.87-0.001 0.011c0-0.003 0-0.007 0-0.011 0-12.272-9.949-22.222-22.222-22.222S2.206 39.422 2.206 51.694c0 7.015 3.258 13.26 8.333 17.333v18.779H34.15v-8.333h2.778v-0.002c4.602 0 8.333-3.73 8.333-8.333v-5.554l5.556-0.002c0.768 0 1.389-0.621 1.389-1.389C52.206 63.969 52.14 63.763 52.043 63.576zM39.706 57.25c-1.534 0-2.778-1.244-2.778-2.778 0-1.533 1.244-2.777 2.778-2.777s2.778 1.244 2.778 2.777C42.484 56.006 41.24 57.25 39.706 57.25z" data-fill-palette-color="accent"></path><path fill="#ffffff" d="M93.873 14.194H60.539c-4.604 0-8.333 3.73-8.333 8.333 0 0 0 0 0 0.001v19.443c0 4.602 3.729 8.332 8.333 8.332l4.167 0.001-4.167 11.111 18.056-11.111 15.278-0.001c4.604 0 8.333-3.73 8.333-8.332v-1.388V22.529c0-0.001 0-0.001 0-0.001C102.206 17.924 98.477 14.194 93.873 14.194zM74.429 43.124l-8.91-8.908 3.928-3.928 4.982 4.98 12.619-12.621 3.928 3.928L74.429 43.124z" data-fill-palette-color="accent"></path></svg></g></svg></g></svg></g></svg></g><g></g></svg></g><defs></defs></svg><rect width="395.52" height="216.57879679048992" fill="none" stroke="none" visibility="hidden"></rect></g></svg></g></svg>